<?xml version="1.0" encoding="UTF-8" standalone="no"?>
<!-- Generator: Adobe Illustrator 22.0.1, SVG Export Plug-In . SVG Version: 6.00 Build 0)  -->

<svg
   xmlns:dc="http://purl.org/dc/elements/1.1/"
   xmlns:cc="http://creativecommons.org/ns#"
   xmlns:rdf="http://www.w3.org/1999/02/22-rdf-syntax-ns#"
   xmlns:svg="http://www.w3.org/2000/svg"
   xmlns="http://www.w3.org/2000/svg"
   xmlns:xlink="http://www.w3.org/1999/xlink"
   xmlns:sodipodi="http://sodipodi.sourceforge.net/DTD/sodipodi-0.dtd"
   xmlns:inkscape="http://www.inkscape.org/namespaces/inkscape"
   version="1.1"
   id="Layer_1"
   x="0px"
   y="0px"
   viewBox="0 0 14.82 19.129999"
   xml:space="preserve"
   sodipodi:docname="humidity.svg"
   width="14.82"
   height="19.129999"
   inkscape:version="0.92.3 (2405546, 2018-03-11)"><metadata
   id="metadata9"><rdf:RDF><cc:Work
       rdf:about=""><dc:format>image/svg+xml</dc:format><dc:type
         rdf:resource="http://purl.org/dc/dcmitype/StillImage" /><dc:title></dc:title></cc:Work></rdf:RDF></metadata><defs
   id="defs7"><linearGradient
     inkscape:collect="always"
     id="linearGradient823"><stop
       style="stop-color:#ff4545;stop-opacity:1"
       offset="0"
       id="stop819" /><stop
       style="stop-color:#ff8c24;stop-opacity:1"
       offset="1"
       id="stop821" /></linearGradient><linearGradient
     inkscape:collect="always"
     xlink:href="#linearGradient823"
     id="linearGradient825"
     x1="7.5599999"
     y1="15.025"
     x2="22.379999"
     y2="15.025"
     gradientUnits="userSpaceOnUse"
     gradientTransform="translate(-7.56,-5.46)" /></defs><sodipodi:namedview
   pagecolor="#ffffff"
   bordercolor="#666666"
   borderopacity="1"
   objecttolerance="10"
   gridtolerance="10"
   guidetolerance="10"
   inkscape:pageopacity="0"
   inkscape:pageshadow="2"
   inkscape:window-width="959"
   inkscape:window-height="1007"
   id="namedview5"
   showgrid="false"
   fit-margin-top="0"
   fit-margin-left="0"
   fit-margin-right="0"
   fit-margin-bottom="0"
   inkscape:zoom="7.8666667"
   inkscape:cx="8.9654237"
   inkscape:cy="9.59"
   inkscape:window-x="960"
   inkscape:window-y="40"
   inkscape:window-maximized="0"
   inkscape:current-layer="Layer_1" />
<path
   d="M 0,11.73 C 0,10.85 0.24,9.84 0.72,8.7 1.2,7.56 1.82,6.45 2.58,5.39 4.14,3.33 5.5,1.77 6.64,0.72 L 7.39,0 c 0.25,0.26 0.53,0.5 0.83,0.72 0.41,0.42 1.04,1.11 1.88,2.09 0.84,0.98 1.57,1.85 2.17,2.65 0.71,1.01 1.32,2.1 1.81,3.25 0.49,1.15 0.74,2.16 0.74,3.03 0,1 -0.19,1.95 -0.58,2.86 -0.39,0.91 -0.91,1.7 -1.57,2.36 -0.66,0.66 -1.45,1.19 -2.37,1.58 -0.92,0.39 -1.89,0.59 -2.91,0.59 -1,0 -1.95,-0.19 -2.86,-0.57 C 3.62,18.18 2.83,17.67 2.17,17.01 1.51,16.36 0.98,15.57 0.59,14.66 0.2,13.75 0,12.77 0,11.73 Z M 2.26,8.8 c 0,0.83 0.17,1.49 0.52,1.99 0.35,0.49 0.88,0.74 1.59,0.74 0.72,0 1.25,-0.25 1.61,-0.74 C 6.33,10.3 6.51,9.64 6.52,8.8 6.51,7.96 6.33,7.3 5.98,6.8 5.63,6.31 5.09,6.06 4.37,6.06 3.66,6.06 3.13,6.31 2.78,6.8 2.43,7.3 2.26,7.96 2.26,8.8 Z m 1.57,0 c 0,-0.15 0,-0.27 0,-0.35 C 3.83,8.37 3.84,8.26 3.85,8.12 3.86,7.98 3.87,7.87 3.9,7.8 3.93,7.73 3.95,7.64 3.99,7.56 4.03,7.48 4.08,7.41 4.14,7.38 4.21,7.34 4.28,7.32 4.37,7.32 4.51,7.32 4.62,7.36 4.7,7.44 4.78,7.52 4.84,7.65 4.87,7.82 4.9,8 4.92,8.14 4.93,8.27 c 0.01,0.13 0.01,0.3 0.01,0.52 0,0.23 0,0.4 -0.01,0.52 C 4.92,9.43 4.9,9.58 4.87,9.76 4.84,9.93 4.78,10.06 4.7,10.14 4.62,10.22 4.51,10.26 4.37,10.26 4.28,10.26 4.21,10.24 4.14,10.2 4.07,10.16 4.02,10.1 3.99,10.02 3.95,9.94 3.92,9.85 3.9,9.78 3.88,9.7 3.86,9.59 3.85,9.46 3.84,9.32 3.83,9.21 3.83,9.14 c 0,-0.07 0,-0.19 0,-0.34 z m 0.59,7.75 H 5.74 L 10.73,5.81 H 9.38 Z m 4.3,-2.99 c 0.01,0.84 0.2,1.5 0.55,2 0.35,0.49 0.89,0.74 1.6,0.74 0.72,0 1.25,-0.25 1.6,-0.74 0.35,-0.49 0.52,-1.16 0.53,-2 -0.01,-0.84 -0.18,-1.5 -0.53,-1.99 -0.35,-0.49 -0.88,-0.74 -1.6,-0.74 -0.71,0 -1.25,0.25 -1.6,0.74 -0.36,0.49 -0.54,1.15 -0.55,1.99 z m 1.57,0 c 0,-0.23 0,-0.4 0.01,-0.52 0.01,-0.12 0.03,-0.27 0.06,-0.45 0.03,-0.18 0.09,-0.3 0.17,-0.38 0.08,-0.08 0.19,-0.12 0.33,-0.12 0.09,0 0.17,0.02 0.24,0.06 0.07,0.04 0.12,0.1 0.16,0.19 0.04,0.09 0.07,0.17 0.1,0.24 0.03,0.07 0.04,0.18 0.05,0.32 l 0.01,0.32 v 0.34 c 0,0.16 0,0.28 0,0.35 l -0.01,0.32 -0.05,0.32 -0.1,0.24 -0.16,0.19 -0.24,0.06 c -0.14,0 -0.25,-0.04 -0.33,-0.12 -0.08,-0.08 -0.14,-0.21 -0.17,-0.38 -0.03,-0.18 -0.05,-0.33 -0.06,-0.45 -0.01,-0.12 -0.01,-0.3 -0.01,-0.53 z"
   id="path2"
   style="fill:url(#linearGradient825);fill-opacity:1"
   inkscape:connector-curvature="0" />
</svg>