<?xml version="1.0" encoding="UTF-8" standalone="no"?>
<!-- Generator: Adobe Illustrator 22.0.1, SVG Export Plug-In . SVG Version: 6.00 Build 0)  -->

<svg
   xmlns:dc="http://purl.org/dc/elements/1.1/"
   xmlns:cc="http://creativecommons.org/ns#"
   xmlns:rdf="http://www.w3.org/1999/02/22-rdf-syntax-ns#"
   xmlns:svg="http://www.w3.org/2000/svg"
   xmlns="http://www.w3.org/2000/svg"
   xmlns:xlink="http://www.w3.org/1999/xlink"
   xmlns:sodipodi="http://sodipodi.sourceforge.net/DTD/sodipodi-0.dtd"
   xmlns:inkscape="http://www.inkscape.org/namespaces/inkscape"
   version="1.1"
   id="Layer_1"
   x="0px"
   y="0px"
   viewBox="0 0 23.799999 12.75"
   xml:space="preserve"
   sodipodi:docname="strong-wind.svg"
   width="23.799999"
   height="12.75"
   inkscape:version="0.92.3 (2405546, 2018-03-11)"><metadata
   id="metadata9"><rdf:RDF><cc:Work
       rdf:about=""><dc:format>image/svg+xml</dc:format><dc:type
         rdf:resource="http://purl.org/dc/dcmitype/StillImage" /><dc:title></dc:title></cc:Work></rdf:RDF></metadata><defs
   id="defs7"><linearGradient
     inkscape:collect="always"
     id="linearGradient823"><stop
       style="stop-color:#ff4545;stop-opacity:1"
       offset="0"
       id="stop819" /><stop
       style="stop-color:#ff8c24;stop-opacity:1"
       offset="1"
       id="stop821" /></linearGradient><linearGradient
     inkscape:collect="always"
     xlink:href="#linearGradient823"
     id="linearGradient825"
     x1="3.0999999"
     y1="15.325"
     x2="26.9"
     y2="15.325"
     gradientUnits="userSpaceOnUse"
     gradientTransform="translate(-3.1,-8.95)" /></defs><sodipodi:namedview
   pagecolor="#ffffff"
   bordercolor="#666666"
   borderopacity="1"
   objecttolerance="10"
   gridtolerance="10"
   guidetolerance="10"
   inkscape:pageopacity="0"
   inkscape:pageshadow="2"
   inkscape:window-width="959"
   inkscape:window-height="1007"
   id="namedview5"
   showgrid="false"
   fit-margin-top="0"
   fit-margin-left="0"
   fit-margin-right="0"
   fit-margin-bottom="0"
   inkscape:zoom="7.8666667"
   inkscape:cx="8.340678"
   inkscape:cy="6.7"
   inkscape:window-x="960"
   inkscape:window-y="40"
   inkscape:window-maximized="0"
   inkscape:current-layer="Layer_1" />
<path
   d="M 0,8.02 C 0,8.26 0.09,8.47 0.28,8.64 0.44,8.83 0.65,8.92 0.91,8.92 H 15.6 c 0.29,0 0.53,0.1 0.73,0.3 0.2,0.2 0.3,0.45 0.3,0.74 0,0.29 -0.1,0.53 -0.3,0.72 -0.2,0.19 -0.44,0.29 -0.74,0.29 -0.29,0 -0.54,-0.1 -0.73,-0.29 -0.16,-0.18 -0.36,-0.26 -0.6,-0.26 -0.25,0 -0.46,0.09 -0.64,0.26 -0.18,0.17 -0.27,0.38 -0.27,0.61 0,0.25 0.09,0.46 0.28,0.63 0.56,0.55 1.22,0.83 1.96,0.83 0.78,0 1.45,-0.27 2.01,-0.81 0.56,-0.54 0.83,-1.19 0.83,-1.97 0,-0.78 -0.28,-1.44 -0.84,-2 -0.56,-0.56 -1.23,-0.84 -2,-0.84 H 0.91 C 0.66,7.13 0.45,7.22 0.27,7.39 0.09,7.56 0,7.77 0,8.02 Z M 0,4.74 c 0,0.23 0.09,0.43 0.28,0.61 0.17,0.18 0.38,0.26 0.63,0.26 h 20.04 c 0.78,0 1.45,-0.27 2.01,-0.82 C 23.52,4.25 23.8,3.59 23.8,2.82 23.8,2.05 23.52,1.38 22.96,0.83 22.4,0.28 21.73,0 20.95,0 20.18,0 19.53,0.27 19,0.8 c -0.18,0.16 -0.27,0.38 -0.27,0.67 0,0.26 0.09,0.47 0.26,0.63 0.17,0.16 0.38,0.24 0.63,0.24 0.24,0 0.45,-0.08 0.63,-0.24 0.19,-0.21 0.42,-0.31 0.7,-0.31 0.29,0 0.53,0.1 0.73,0.3 0.2,0.2 0.3,0.44 0.3,0.73 0,0.29 -0.1,0.53 -0.3,0.72 -0.2,0.19 -0.44,0.29 -0.73,0.29 H 0.91 C 0.66,3.83 0.45,3.92 0.27,4.09 0.09,4.28 0,4.49 0,4.74 Z"
   id="path2"
   style="fill:url(#linearGradient825);fill-opacity:1"
   inkscape:connector-curvature="0" />
</svg>